<?xml version="1.0" encoding="UTF-8" standalone="no"?>
<!-- Created with Inkscape (http://www.inkscape.org/) -->

<svg
   xmlns:dc="http://purl.org/dc/elements/1.1/"
   xmlns:cc="http://creativecommons.org/ns#"
   xmlns:rdf="http://www.w3.org/1999/02/22-rdf-syntax-ns#"
   xmlns:svg="http://www.w3.org/2000/svg"
   xmlns="http://www.w3.org/2000/svg"
   xmlns:sodipodi="http://sodipodi.sourceforge.net/DTD/sodipodi-0.dtd"
   xmlns:inkscape="http://www.inkscape.org/namespaces/inkscape"
   width="500"
   height="500"
   id="svg2"
   version="1.1"
   inkscape:version="0.48.4 r9939"
   sodipodi:docname="New document 1">
  <defs
     id="defs4" />
  <sodipodi:namedview
     id="base"
     pagecolor="#ffffff"
     bordercolor="#666666"
     borderopacity="1.0"
     inkscape:pageopacity="0.0"
     inkscape:pageshadow="2"
     inkscape:zoom="0.98994949"
     inkscape:cx="170.62643"
     inkscape:cy="268.1509"
     inkscape:document-units="px"
     inkscape:current-layer="layer1"
     showgrid="false"
     inkscape:window-width="1680"
     inkscape:window-height="949"
     inkscape:window-x="0"
     inkscape:window-y="28"
     inkscape:window-maximized="1"
     showguides="true"
     inkscape:guide-bbox="true" />
  <metadata
     id="metadata7">
    <rdf:RDF>
      <cc:Work
         rdf:about="">
        <dc:format>image/svg+xml</dc:format>
        <dc:type
           rdf:resource="http://purl.org/dc/dcmitype/StillImage" />
        <dc:title></dc:title>
      </cc:Work>
    </rdf:RDF>
  </metadata>
  <g
     inkscape:label="Layer 1"
     inkscape:groupmode="layer"
     id="layer1"
     transform="translate(0,-552.36218)">
    <path
       transform="matrix(1.0965249,0,0,1.1552122,97.098754,506.72845)"
       sodipodi:type="arc"
       style="fill:#f7f7f7;fill-opacity:1;stroke:#33aba3;stroke-width:8;stroke-miterlimit:4;stroke-opacity:1;stroke-dasharray:none;opacity:1"
       id="path3902-9-23"
       sodipodi:cx="100.35714"
       sodipodi:cy="142.14285"
       sodipodi:rx="72.5"
       sodipodi:ry="75"
       d="m 172.85714,142.14285 a 72.5,75 0 1 1 -145,0 72.5,75 0 1 1 145,0 z" />
    <path
       transform="matrix(0.87656463,0,0,0.95686966,218.10191,537.77857)"
       sodipodi:type="arc"
       style="fill:#f7f7f7;fill-opacity:1;stroke:#33aba3;stroke-width:8;stroke-miterlimit:4;stroke-opacity:1;stroke-dasharray:none;opacity:1"
       id="path3902-9-7"
       sodipodi:cx="100.35714"
       sodipodi:cy="142.14285"
       sodipodi:rx="72.5"
       sodipodi:ry="75"
       d="m 172.85714,142.14285 a 72.5,75 0 1 1 -145,0 72.5,75 0 1 1 145,0 z" />
    <path
       transform="matrix(1.0965249,0,0,1.1552122,261.38447,551.01416)"
       sodipodi:type="arc"
       style="fill:#f7f7f7;fill-opacity:1;stroke:#33aba3;stroke-width:8;stroke-miterlimit:4;stroke-opacity:1;stroke-dasharray:none;opacity:1"
       id="path3902-9-18"
       sodipodi:cx="100.35714"
       sodipodi:cy="142.14285"
       sodipodi:rx="72.5"
       sodipodi:ry="75"
       d="m 172.85714,142.14285 a 72.5,75 0 1 1 -145,0 72.5,75 0 1 1 145,0 z" />
    <path
       transform="matrix(1.3644498,0,0,1.180873,232.35344,642.00953)"
       sodipodi:type="arc"
       style="fill:#f7f7f7;fill-opacity:1;stroke:#33aba3;stroke-width:8;stroke-miterlimit:4;stroke-opacity:1;stroke-dasharray:none;opacity:1"
       id="path3902-9-9"
       sodipodi:cx="100.35714"
       sodipodi:cy="142.14285"
       sodipodi:rx="72.5"
       sodipodi:ry="75"
       d="m 172.85714,142.14285 a 72.5,75 0 1 1 -145,0 72.5,75 0 1 1 145,0 z" />
    <path
       transform="matrix(1.0965249,0,0,1.1552122,191.38447,743.15702)"
       sodipodi:type="arc"
       style="fill:#f7f7f7;fill-opacity:1;stroke:#33aba3;stroke-width:8;stroke-miterlimit:4;stroke-opacity:1;stroke-dasharray:none;opacity:1"
       id="path3902-9-15"
       sodipodi:cx="100.35714"
       sodipodi:cy="142.14285"
       sodipodi:rx="72.5"
       sodipodi:ry="75"
       d="m 172.85714,142.14285 a 72.5,75 0 1 1 -145,0 72.5,75 0 1 1 145,0 z" />
    <path
       transform="matrix(1.0965249,0,0,1.1552122,-12.901245,743.15703)"
       sodipodi:type="arc"
       style="fill:#f7f7f7;fill-opacity:1;stroke:#33aba3;stroke-width:8;stroke-miterlimit:4;stroke-opacity:1;stroke-dasharray:none;opacity:1"
       id="path3902-9-1"
       sodipodi:cx="100.35714"
       sodipodi:cy="142.14285"
       sodipodi:rx="72.5"
       sodipodi:ry="75"
       d="m 172.85714,142.14285 a 72.5,75 0 1 1 -145,0 72.5,75 0 1 1 145,0 z" />
    <path
       transform="matrix(1.3435561,0,0,1.4178186,56.235979,729.40083)"
       sodipodi:type="arc"
       style="fill:#f7f7f7;fill-opacity:1;stroke:#33aba3;stroke-width:8;stroke-miterlimit:4;stroke-opacity:1;stroke-dasharray:none;opacity:1"
       id="path3902-9-2"
       sodipodi:cx="100.35714"
       sodipodi:cy="142.14285"
       sodipodi:rx="72.5"
       sodipodi:ry="75"
       d="m 172.85714,142.14285 a 72.5,75 0 1 1 -145,0 72.5,75 0 1 1 145,0 z" />
    <path
       sodipodi:type="arc"
       style="fill:#f7f7f7;fill-opacity:1;stroke:#33aba3;stroke-opacity:1;stroke-width:8;stroke-miterlimit:4;stroke-dasharray:none;opacity:1"
       id="path3902"
       sodipodi:cx="100.35714"
       sodipodi:cy="142.14285"
       sodipodi:rx="72.5"
       sodipodi:ry="75"
       d="m 172.85714,142.14285 a 72.5,75 0 1 1 -145,0 72.5,75 0 1 1 145,0 z"
       transform="translate(0,552.36218)" />
    <path
       transform="matrix(1.0965249,0,0,1.1552122,-24.686961,644.5856)"
       sodipodi:type="arc"
       style="fill:#f7f7f7;fill-opacity:1;stroke:#33aba3;stroke-width:8;stroke-miterlimit:4;stroke-opacity:1;stroke-dasharray:none"
       id="path3902-9"
       sodipodi:cx="100.35714"
       sodipodi:cy="142.14285"
       sodipodi:rx="72.5"
       sodipodi:ry="75"
       d="m 172.85714,142.14285 a 72.5,75 0 1 1 -145,0 72.5,75 0 1 1 145,0 z" />
    <path
       style="fill:#f7f7f7;stroke:none;stroke-width:1px;stroke-linecap:butt;stroke-linejoin:miter;stroke-opacity:1;fill-opacity:1"
       d="m 41.416254,175.74103 5.555839,13.13199 39.39595,-8.08122 -55.55839,144.95689 62.124381,76.26651 163.139636,-231.83001 9.59645,-92.93403 2.52538,-7.576145 -8.5863,-8.08122 z"
       id="path4003"
       inkscape:connector-curvature="0"
       transform="translate(0,552.36218)" />
    <path
       style="fill:#f7f7f7;stroke:none;stroke-width:1px;stroke-linecap:butt;stroke-linejoin:miter;stroke-opacity:1;fill-opacity:1"
       d="M 99.500025,989.73273 122.73353,987.71242 112.632,959.42815 92.934034,970.53983 z"
       id="path4005"
       inkscape:connector-curvature="0" />
    <g
       id="g4060"
       style="opacity:1">
      <path
         sodipodi:nodetypes="ccccccccccccccccccccccccc"
         inkscape:connector-curvature="0"
         id="path2985-6"
         d="m 117.11673,618.86615 -1.01015,75.76144 -62.629461,-1.01015 21.213202,59.599 -55.558389,17.1726 57.578695,55.55838 -43.43656,55.5584 67.680223,16.16243 -16.162439,89.90361 112.126929,-49.4975 109.09648,80.81224 -6.06092,-112.12697 125.25891,70.71068 -49.49747,-108.08633 104.04571,-49.49747 -91.92388,-37.37565 72.73098,-52.52793 -93.94418,-9.09137 98.99495,-65.65992 -136.3706,24.24367 40.4061,-80.81221 -95.96449,53.53809 -56.56854,-73.74114 -32.32488,57.5787 z"
         style="fill:#363636;fill-opacity:0.31428576000000003;stroke:none" />
      <path
         transform="translate(0,552.36218)"
         sodipodi:nodetypes="ccccccccccccccccccccccccc"
         inkscape:connector-curvature="0"
         id="path2985"
         d="m 118.18785,56.543033 -1.01015,75.761437 -62.629462,-1.01015 21.213202,59.599 -55.558389,17.1726 57.578695,55.55838 -43.43656,55.5584 67.680224,16.16243 -16.16244,89.90358 112.12693,-49.49747 109.09648,80.8122 -6.06092,-112.12693 125.25891,70.71068 -49.49747,-108.08633 104.04571,-49.49747 -91.92388,-37.37565 72.73098,-52.52793 -93.94418,-9.09137 98.99495,-65.659916 -136.3706,24.243666 40.4061,-80.812208 -95.96449,53.538085 -56.56854,-73.741136 -32.32488,57.578697 z"
         style="fill:#fffef8;stroke:#d59700;stroke-width:4.59999999999999964;stroke-linecap:butt;stroke-linejoin:round;stroke-opacity:1;fill-opacity:1;stroke-miterlimit:4;stroke-dasharray:none" />
    </g>
    <text
       xml:space="preserve"
       style="font-size:58.99016189999999682px;font-style:normal;font-weight:normal;line-height:125%;letter-spacing:0px;word-spacing:0px;fill:none;fill-opacity:0.45714284999999999;stroke:#2b1c1c;stroke-width:25.83900012999999873;stroke-miterlimit:4;stroke-opacity:1;stroke-dasharray:none;font-family:Sans"
       x="-183.77017"
       y="778.03528"
       id="text3853-1"
       sodipodi:linespacing="125%"
       transform="matrix(0.84280983,-0.31138994,0.23897183,1.0982152,0,0)"><tspan
         sodipodi:role="line"
         id="tspan3855-0"
         x="-183.77017"
         y="778.03528"
         style="font-size:106.18229675000000611px;font-style:normal;font-variant:normal;font-weight:bold;font-stretch:normal;fill:none;fill-opacity:0.45714284999999999;stroke:#2b1c1c;stroke-width:25.83900012999999873;stroke-miterlimit:4;stroke-opacity:1;stroke-dasharray:none;font-family:Navilu;-inkscape-font-specification:Navilu Bold">Discovery!</tspan></text>
    <text
       xml:space="preserve"
       style="font-size:58.99016189999999682px;font-style:normal;font-weight:normal;line-height:125%;letter-spacing:0px;word-spacing:0px;fill:#e15a5a;fill-opacity:1;stroke:none;stroke-width:3.53940988000000001;stroke-miterlimit:4;stroke-opacity:1;stroke-dasharray:none;font-family:Sans"
       x="-182.99922"
       y="777.2807"
       id="text3853"
       sodipodi:linespacing="125%"
       transform="matrix(0.84280983,-0.31138994,0.23897183,1.0982152,0,0)"><tspan
         sodipodi:role="line"
         id="tspan3855"
         x="-182.99922"
         y="777.2807"
         style="font-size:106.18229675000000611px;font-style:normal;font-variant:normal;font-weight:bold;font-stretch:normal;fill:#e15a5a;fill-opacity:1;stroke:none;stroke-width:3.53940988000000001;stroke-miterlimit:4;stroke-opacity:1;stroke-dasharray:none;font-family:Navilu;-inkscape-font-specification:Navilu Bold">Discovery!</tspan></text>
  </g>
</svg>
