<?xml version="1.0" encoding="UTF-8" standalone="no"?>
<!-- Created with Inkscape (http://www.inkscape.org/) -->

<svg
   xmlns:dc="http://purl.org/dc/elements/1.1/"
   xmlns:cc="http://creativecommons.org/ns#"
   xmlns:rdf="http://www.w3.org/1999/02/22-rdf-syntax-ns#"
   xmlns:svg="http://www.w3.org/2000/svg"
   xmlns="http://www.w3.org/2000/svg"
   xmlns:sodipodi="http://sodipodi.sourceforge.net/DTD/sodipodi-0.dtd"
   xmlns:inkscape="http://www.inkscape.org/namespaces/inkscape"
   width="500"
   height="500"
   id="svg5210"
   version="1.1"
   inkscape:version="0.48.4 r9939"
   sodipodi:docname="target_cropcircle2.svg"
   inkscape:export-filename="/home/campus24/kayleee/Documents/bonzai-2016/art/sprites/target_cropcircle2.png"
   inkscape:export-xdpi="90"
   inkscape:export-ydpi="90">
  <defs
     id="defs5212" />
  <sodipodi:namedview
     id="base"
     pagecolor="#ffffff"
     bordercolor="#666666"
     borderopacity="1.0"
     inkscape:pageopacity="0.0"
     inkscape:pageshadow="2"
     inkscape:zoom="0.98994949"
     inkscape:cx="245.69083"
     inkscape:cy="195.70575"
     inkscape:document-units="px"
     inkscape:current-layer="layer1"
     showgrid="false"
     inkscape:window-width="959"
     inkscape:window-height="978"
     inkscape:window-x="831"
     inkscape:window-y="28"
     inkscape:window-maximized="0" />
  <metadata
     id="metadata5215">
    <rdf:RDF>
      <cc:Work
         rdf:about="">
        <dc:format>image/svg+xml</dc:format>
        <dc:type
           rdf:resource="http://purl.org/dc/dcmitype/StillImage" />
        <dc:title></dc:title>
      </cc:Work>
    </rdf:RDF>
  </metadata>
  <g
     inkscape:label="Layer 1"
     inkscape:groupmode="layer"
     id="layer1"
     transform="translate(0,-552.36218)">
    <path
       sodipodi:type="arc"
       style="fill:none;stroke:#ecd4d4;stroke-opacity:1;stroke-width:10.77786715;stroke-miterlimit:4;stroke-dasharray:none"
       id="path5726"
       sodipodi:cx="198.21428"
       sodipodi:cy="130.71428"
       sodipodi:rx="46.07143"
       sodipodi:ry="54.285713"
       d="m 244.28571,130.71428 c 0,29.98117 -20.62688,54.28571 -46.07143,54.28571 -25.44455,0 -46.07143,-24.30454 -46.07143,-54.28571 0,-29.98117 20.62688,-54.285714 46.07143,-54.285714 25.44455,0 46.07143,24.304544 46.07143,54.285714 z"
       transform="matrix(1.0745282,0,0,0.91193516,37.013167,596.47647)" />
    <path
       sodipodi:type="arc"
       style="fill:none;stroke:#ecd4d4;stroke-opacity:1;stroke-width:11.97540797;stroke-miterlimit:4;stroke-dasharray:none"
       id="path5726-0"
       sodipodi:cx="198.21428"
       sodipodi:cy="130.71428"
       sodipodi:rx="46.07143"
       sodipodi:ry="54.285713"
       d="m 244.28571,130.71428 c 0,29.98117 -20.62688,54.28571 -46.07143,54.28571 -25.44455,0 -46.07143,-24.30454 -46.07143,-54.28571 0,-29.98117 20.62688,-54.285714 46.07143,-54.285714 25.44455,0 46.07143,24.304544 46.07143,54.285714 z"
       transform="matrix(0.96707538,0,0,0.82074164,58.311851,702.06974)" />
    <path
       sodipodi:type="arc"
       style="fill:none;stroke:#ecd4d4;stroke-opacity:1;stroke-width:13.472334;stroke-miterlimit:4;stroke-dasharray:none"
       id="path5726-0-8"
       sodipodi:cx="198.21428"
       sodipodi:cy="130.71428"
       sodipodi:rx="46.07143"
       sodipodi:ry="54.285713"
       d="m 244.28571,130.71428 c 0,29.98117 -20.62688,54.28571 -46.07143,54.28571 -25.44455,0 -46.07143,-24.30454 -46.07143,-54.28571 0,-29.98117 20.62688,-54.285714 46.07143,-54.285714 25.44455,0 46.07143,24.304544 46.07143,54.285714 z"
       transform="matrix(0.85962255,0,0,0.72954813,79.610536,799.4284)" />
    <path
       sodipodi:type="arc"
       style="fill:none;stroke:#ecd4d4;stroke-opacity:1;stroke-width:15.3969531;stroke-miterlimit:4;stroke-dasharray:none"
       id="path5726-0-1"
       sodipodi:cx="198.21428"
       sodipodi:cy="130.71428"
       sodipodi:rx="46.07143"
       sodipodi:ry="54.285713"
       d="m 244.28571,130.71428 c 0,29.98117 -20.62688,54.28571 -46.07143,54.28571 -25.44455,0 -46.07143,-24.30454 -46.07143,-54.28571 0,-29.98117 20.62688,-54.285714 46.07143,-54.285714 25.44455,0 46.07143,24.304544 46.07143,54.285714 z"
       transform="matrix(0.75216974,0,0,0.63835461,100.90922,886.34869)" />
    <path
       sodipodi:type="arc"
       style="fill:none;stroke:#ecd4d4;stroke-opacity:1;stroke-width:17.96311185;stroke-miterlimit:4;stroke-dasharray:none"
       id="path5726-0-1-1"
       sodipodi:cx="198.21428"
       sodipodi:cy="130.71428"
       sodipodi:rx="46.07143"
       sodipodi:ry="54.285713"
       d="m 244.28571,130.71428 c 0,29.98117 -20.62688,54.28571 -46.07143,54.28571 -25.44455,0 -46.07143,-24.30454 -46.07143,-54.28571 0,-29.98117 20.62688,-54.285714 46.07143,-54.285714 25.44455,0 46.07143,24.304544 46.07143,54.285714 z"
       transform="matrix(0.64471692,0,0,0.5471611,-12.541892,588.11514)" />
    <path
       sodipodi:type="arc"
       style="fill:none;stroke:#ecd4d4;stroke-opacity:1;stroke-width:15.3969531;stroke-miterlimit:4;stroke-dasharray:none"
       id="path5726-0-1-4"
       sodipodi:cx="198.21428"
       sodipodi:cy="130.71428"
       sodipodi:rx="46.07143"
       sodipodi:ry="54.285713"
       d="m 244.28571,130.71428 c 0,29.98117 -20.62688,54.28571 -46.07143,54.28571 -25.44455,0 -46.07143,-24.30454 -46.07143,-54.28571 0,-29.98117 20.62688,-54.285714 46.07143,-54.285714 25.44455,0 46.07143,24.304544 46.07143,54.285714 z"
       transform="matrix(0.75216974,0,0,0.63835461,25.094901,550.64518)" />
    <path
       sodipodi:type="arc"
       style="fill:none;stroke:#ecd4d4;stroke-opacity:1;stroke-width:12.67984374;stroke-miterlimit:4;stroke-dasharray:none"
       id="path5726-0-1-0"
       sodipodi:cx="198.21428"
       sodipodi:cy="130.71428"
       sodipodi:rx="46.07143"
       sodipodi:ry="54.285713"
       d="m 244.28571,130.71428 c 0,29.98117 -20.62688,54.28571 -46.07143,54.28571 -25.44455,0 -46.07143,-24.30454 -46.07143,-54.28571 0,-29.98117 20.62688,-54.285714 46.07143,-54.285714 25.44455,0 46.07143,24.304544 46.07143,54.285714 z"
       transform="matrix(0.91334896,0,0,0.77514489,68.961194,521.29592)" />
    <path
       sodipodi:type="arc"
       style="fill:none;stroke:#ecd4d4;stroke-opacity:1;stroke-width:17.96311185;stroke-miterlimit:4;stroke-dasharray:none"
       id="path5726-0-1-1-9"
       sodipodi:cx="198.21428"
       sodipodi:cy="130.71428"
       sodipodi:rx="46.07143"
       sodipodi:ry="54.285713"
       d="m 244.28571,130.71428 c 0,29.98117 -20.62688,54.28571 -46.07143,54.28571 -25.44455,0 -46.07143,-24.30454 -46.07143,-54.28571 0,-29.98117 20.62688,-54.285714 46.07143,-54.285714 25.44455,0 46.07143,24.304544 46.07143,54.285714 z"
       transform="matrix(-0.64471692,0,0,0.5471611,512.61698,588.11514)" />
    <path
       sodipodi:type="arc"
       style="fill:none;stroke:#ecd4d4;stroke-opacity:1;stroke-width:15.3969531;stroke-miterlimit:4;stroke-dasharray:none"
       id="path5726-0-1-4-2"
       sodipodi:cx="198.21428"
       sodipodi:cy="130.71428"
       sodipodi:rx="46.07143"
       sodipodi:ry="54.285713"
       d="m 244.28571,130.71428 c 0,29.98117 -20.62688,54.28571 -46.07143,54.28571 -25.44455,0 -46.07143,-24.30454 -46.07143,-54.28571 0,-29.98117 20.62688,-54.285714 46.07143,-54.285714 25.44455,0 46.07143,24.304544 46.07143,54.285714 z"
       transform="matrix(-0.75216974,0,0,0.63835461,474.98019,550.64518)" />
    <path
       sodipodi:type="arc"
       style="fill:#ffffff;fill-opacity:1;stroke:#ecd4d4;stroke-width:11.39435237;stroke-linejoin:bevel;stroke-miterlimit:4;stroke-opacity:1;stroke-dasharray:none"
       id="path5824"
       sodipodi:cx="255.06352"
       sodipodi:cy="145.94153"
       sodipodi:rx="24.748737"
       sodipodi:ry="28.789347"
       d="m 279.81226,145.94153 c 0,15.89992 -11.08039,28.78935 -24.74874,28.78935 -13.66835,0 -24.74873,-12.88943 -24.74873,-28.78935 0,-15.89992 11.08038,-28.78935 24.74873,-28.78935 13.66835,0 24.74874,12.88943 24.74874,28.78935 z"
       transform="matrix(1.1114692,0,0,0.78880691,-33.495249,576.3016)" />
    <path
       sodipodi:type="arc"
       style="fill:#ffffff;fill-opacity:1;stroke:#ecd4d4;stroke-width:14.14196461;stroke-linejoin:bevel;stroke-miterlimit:4;stroke-opacity:1;stroke-dasharray:none"
       id="path5824-9"
       sodipodi:cx="255.06352"
       sodipodi:cy="145.94153"
       sodipodi:rx="24.748737"
       sodipodi:ry="28.789347"
       d="m 279.81226,145.94153 c 0,15.89992 -11.08039,28.78935 -24.74874,28.78935 -13.66835,0 -24.74873,-12.88943 -24.74873,-28.78935 0,-15.89992 11.08038,-28.78935 24.74873,-28.78935 13.66835,0 24.74874,12.88943 24.74874,28.78935 z"
       transform="matrix(0.9290062,0,0,0.61264561,13.044406,694.25116)" />
    <path
       sodipodi:type="arc"
       style="fill:#ffffff;fill-opacity:1;stroke:#ecd4d4;stroke-width:17.26702392;stroke-linejoin:bevel;stroke-miterlimit:4;stroke-opacity:1;stroke-dasharray:none"
       id="path5824-9-4"
       sodipodi:cx="255.06352"
       sodipodi:cy="145.94153"
       sodipodi:rx="24.748737"
       sodipodi:ry="28.789347"
       d="m 279.81226,145.94153 c 0,15.89992 -11.08039,28.78935 -24.74874,28.78935 -13.66835,0 -24.74873,-12.88943 -24.74873,-28.78935 0,-15.89992 11.08038,-28.78935 24.74873,-28.78935 13.66835,0 24.74874,12.88943 24.74874,28.78935 z"
       transform="matrix(0.7416619,0,0,0.514762,60.829103,796.57073)" />
    <path
       sodipodi:type="arc"
       style="fill:#ffffff;fill-opacity:1;stroke:#ecd4d4;stroke-width:24.13393897;stroke-linejoin:bevel;stroke-miterlimit:4;stroke-opacity:1;stroke-dasharray:none"
       id="path5824-9-3"
       sodipodi:cx="255.06352"
       sodipodi:cy="145.94153"
       sodipodi:rx="24.748737"
       sodipodi:ry="28.789347"
       d="m 279.81226,145.94153 c 0,15.89992 -11.08039,28.78935 -24.74874,28.78935 -13.66835,0 -24.74873,-12.88943 -24.74873,-28.78935 0,-15.89992 11.08038,-28.78935 24.74873,-28.78935 13.66835,0 24.74874,12.88943 24.74874,28.78935 z"
       transform="matrix(0.55854153,0,0,0.34989323,107.53643,895.67383)" />
    <path
       sodipodi:type="arc"
       style="fill:#ffffff;fill-opacity:1;stroke:#ecd4d4;stroke-width:14.14196461;stroke-linejoin:bevel;stroke-miterlimit:4;stroke-opacity:1;stroke-dasharray:none"
       id="path5824-9-5"
       sodipodi:cx="255.06352"
       sodipodi:cy="145.94153"
       sodipodi:rx="24.748737"
       sodipodi:ry="28.789347"
       d="m 279.81226,145.94153 c 0,15.89992 -11.08039,28.78935 -24.74874,28.78935 -13.66835,0 -24.74873,-12.88943 -24.74873,-28.78935 0,-15.89992 11.08038,-28.78935 24.74873,-28.78935 13.66835,0 24.74874,12.88943 24.74874,28.78935 z"
       transform="matrix(0.9290062,0,0,0.61264561,13.044407,533.66603)" />
    <path
       sodipodi:type="arc"
       style="fill:#ffffff;fill-opacity:1;stroke:#ecd4d4;stroke-width:14.14196461;stroke-linejoin:bevel;stroke-miterlimit:4;stroke-opacity:1;stroke-dasharray:none"
       id="path5824-9-55"
       sodipodi:cx="255.06352"
       sodipodi:cy="145.94153"
       sodipodi:rx="24.748737"
       sodipodi:ry="28.789347"
       d="m 279.81226,145.94153 c 0,15.89992 -11.08039,28.78935 -24.74874,28.78935 -13.66835,0 -24.74873,-12.88943 -24.74873,-28.78935 0,-15.89992 11.08038,-28.78935 24.74873,-28.78935 13.66835,0 24.74874,12.88943 24.74874,28.78935 z"
       transform="matrix(0.9290062,0,0,0.61264561,-62.669879,543.66602)" />
    <path
       sodipodi:type="arc"
       style="fill:#ffffff;fill-opacity:1;stroke:#ecd4d4;stroke-width:17.09788887;stroke-linejoin:bevel;stroke-miterlimit:4;stroke-opacity:1;stroke-dasharray:none"
       id="path5824-9-8"
       sodipodi:cx="255.06352"
       sodipodi:cy="145.94153"
       sodipodi:rx="24.748737"
       sodipodi:ry="28.789347"
       d="m 279.81226,145.94153 c 0,15.89992 -11.08039,28.78935 -24.74874,28.78935 -13.66835,0 -24.74873,-12.88943 -24.74873,-28.78935 0,-15.89992 11.08038,-28.78935 24.74873,-28.78935 13.66835,0 24.74874,12.88943 24.74874,28.78935 z"
       transform="matrix(0.74100446,0,0,0.52546238,-73.288922,580.6754)" />
    <path
       sodipodi:type="arc"
       style="fill:#ffffff;fill-opacity:1;stroke:#ecd4d4;stroke-width:14.14196461;stroke-linejoin:bevel;stroke-miterlimit:4;stroke-opacity:1;stroke-dasharray:none"
       id="path5824-9-38"
       sodipodi:cx="255.06352"
       sodipodi:cy="145.94153"
       sodipodi:rx="24.748737"
       sodipodi:ry="28.789347"
       d="m 279.81226,145.94153 c 0,15.89992 -11.08039,28.78935 -24.74874,28.78935 -13.66835,0 -24.74873,-12.88943 -24.74873,-28.78935 0,-15.89992 11.08038,-28.78935 24.74873,-28.78935 13.66835,0 24.74874,12.88943 24.74874,28.78935 z"
       transform="matrix(0.9290062,0,0,0.61264561,88.758692,543.66602)" />
    <path
       sodipodi:type="arc"
       style="fill:#ffffff;fill-opacity:1;stroke:#ecd4d4;stroke-width:18.09856985;stroke-linejoin:bevel;stroke-miterlimit:4;stroke-opacity:1;stroke-dasharray:none"
       id="path5824-9-53"
       sodipodi:cx="255.06352"
       sodipodi:cy="145.94153"
       sodipodi:rx="24.748737"
       sodipodi:ry="28.789347"
       d="m 279.81226,145.94153 c 0,15.89992 -11.08039,28.78935 -24.74874,28.78935 -13.66835,0 -24.74873,-12.88943 -24.74873,-28.78935 0,-15.89992 11.08038,-28.78935 24.74873,-28.78935 13.66835,0 24.74874,12.88943 24.74874,28.78935 z"
       transform="matrix(0.74471543,0,0,0.4666256,192.19312,589.26213)" />
  </g>
</svg>
