<?xml version="1.0" encoding="UTF-8" standalone="no"?>
<!-- Created with Inkscape (http://www.inkscape.org/) -->

<svg
   xmlns:dc="http://purl.org/dc/elements/1.1/"
   xmlns:cc="http://creativecommons.org/ns#"
   xmlns:rdf="http://www.w3.org/1999/02/22-rdf-syntax-ns#"
   xmlns:svg="http://www.w3.org/2000/svg"
   xmlns="http://www.w3.org/2000/svg"
   xmlns:sodipodi="http://sodipodi.sourceforge.net/DTD/sodipodi-0.dtd"
   xmlns:inkscape="http://www.inkscape.org/namespaces/inkscape"
   width="500"
   height="500"
   id="svg2"
   version="1.1"
   inkscape:version="0.48.4 r9939"
   sodipodi:docname="target_nazca1.svg"
   inkscape:export-filename="/home/campus24/kayleee/Documents/bonzai-2016/art/sprites/target_nazca1.png"
   inkscape:export-xdpi="90"
   inkscape:export-ydpi="90">
  <defs
     id="defs4" />
  <sodipodi:namedview
     id="base"
     pagecolor="#ffffff"
     bordercolor="#666666"
     borderopacity="1.0"
     inkscape:pageopacity="0.0"
     inkscape:pageshadow="2"
     inkscape:zoom="1.4"
     inkscape:cx="164.82016"
     inkscape:cy="248.46141"
     inkscape:document-units="px"
     inkscape:current-layer="layer1"
     showgrid="false"
     inkscape:window-width="1920"
     inkscape:window-height="979"
     inkscape:window-x="0"
     inkscape:window-y="28"
     inkscape:window-maximized="1" />
  <metadata
     id="metadata7">
    <rdf:RDF>
      <cc:Work
         rdf:about="">
        <dc:format>image/svg+xml</dc:format>
        <dc:type
           rdf:resource="http://purl.org/dc/dcmitype/StillImage" />
        <dc:title></dc:title>
      </cc:Work>
    </rdf:RDF>
  </metadata>
  <g
     inkscape:label="Layer 1"
     inkscape:groupmode="layer"
     id="layer1"
     transform="translate(0,-552.36218)">
    <path
       style="fill:#e7ae89;stroke:#ffefef;stroke-width:11.80000000000000071;stroke-linecap:butt;stroke-linejoin:miter;stroke-opacity:1;stroke-miterlimit:4;stroke-dasharray:none;fill-opacity:0.43333334"
       d="m 128.57143,92.857143 34.28571,123.571427 c -1.17697,11.76967 -46.01111,-2.99339 -53.57143,2.85714 -11.540118,8.93029 -2.71101,117.5601 -9.624907,125.67097 -7.406461,8.6887 -23.746366,3.44949 -32.517946,10.75761 -17.518881,14.59601 -35.887601,58.23223 -35.887601,58.23223 -4.648715,8.56585 0.873656,12.31653 14.783357,7.9797 5.346018,-1.66681 23.17562,-45.06545 44.768489,-56.19706 2.335617,-1.20407 34.587358,-10.98863 20.274838,9.48005 -8.94905,12.79827 -12.819471,25.17278 -14.670864,37.47978 -2.352161,15.6358 -1.445357,31.16263 -3.553933,47.31101 -2.350209,17.99891 16.518027,20.90696 31.428567,1.42857 6.37446,-8.32728 -14.97442,-57.95888 1.25368,-78.48223 2.47512,-3.13024 10.87487,-6.86983 11.60347,-2.94634 4.25611,22.91893 11.59345,76.80683 14.28571,81.42857 9.16978,15.74154 25.44619,11.48354 27.14286,-1.42857 0.568,-4.32262 -34.35551,-57.24377 -21.42857,-90 1.67411,-4.24211 8.93754,-6.79194 12.90512,-4.54328 14.45134,8.19039 13.12328,38.04717 18.03324,47.31376 12.15374,22.93782 20.37248,20.13378 25.87273,9.5098 0,0 -11.56007,-62.91646 -32.52538,-77.99457 -13.81828,-9.93802 -50.92349,-3.76577 -50.92349,-3.76577 2.13155,-15.98775 -4.82019,-49.13287 8.06635,-44.80565 5.58482,1.87535 92.35449,32.8144 130,-12.85715 19.86872,-24.10474 62.87383,81.85472 54.3575,83.18891 0,0 -26.86679,-1.77003 -33.28607,7.88252 -15.24416,22.92236 -15.60225,67.64358 -15.60225,67.64358 0.20873,20.25981 22.99334,18.57733 31.08937,-18.31889 0,0 -3.82707,-20.62245 7.72716,-30.39612 6.55424,-5.5442 34.50084,-22.87825 25.71429,-1.42857 0,0 -6.78697,13.15004 -5.71429,20 4.10246,26.1977 36.7206,74.71106 34.71157,76.38525 6.21793,8.85016 15.78555,5.79792 15.02846,-3.44888 L 351.07142,402.5 c 0.73036,-6.63453 5.19608,-5.79834 9.64287,-5 l 45.33919,74.93872 c 9.62709,13.39692 19.23911,7.38345 15.37509,-2.43872 l -42.49999,-80.35714 c -0.48663,-9.93777 8.16768,-11.33237 11.07142,-6.78572 l 57.14286,84.28572 c 8.58668,5.70105 20.00027,0.73833 12.85714,-12.85715 l -47.14286,-73.92856 c -4.22521,-6.6784 4.02571,-24.35326 16.78572,-5.35715 l 47.5,70.71429 c 7.21803,8.35732 18.71556,0.4717 10,-20 0.23308,0.93231 -17.28212,-42.80293 -51.42857,-80 -14.24891,-15.5219 -43.6283,12.99281 -63.03046,4.77592 C 340.5448,336.8792 305.71429,270 305.71429,270 c -6.94908,-5.30138 45.41764,8.48392 24.99999,-101.42858 -3.75214,-20.19855 22.02771,-13.6471 29.72952,-31.30601 14.66471,-33.62359 -20.14656,-16.36844 -18.0843,-19.28572 -6.66278,-11.39724 7.68208,-8.90644 3.59989,-23.434004 C 319.0015,-1.3911619 191.73012,32.362257 185.63929,69.097815 c 0,0 -6.82463,9.046354 -11.35358,8.045042 -7.49729,-1.657584 -11.42857,-20 -11.42857,-20 -4.26667,-7.466668 -27.96256,-8.214648 -34.88488,11.933647 z"
       id="path3757"
       inkscape:connector-curvature="0"
       transform="translate(0,552.36218)"
       sodipodi:nodetypes="ccssscssssssssssssscscssssccscscccccccccccsccsscsscscsscc" />
  </g>
</svg>
