<?xml version="1.0" encoding="UTF-8" standalone="no"?>
<!-- Created with Inkscape (http://www.inkscape.org/) -->

<svg
   xmlns:dc="http://purl.org/dc/elements/1.1/"
   xmlns:cc="http://creativecommons.org/ns#"
   xmlns:rdf="http://www.w3.org/1999/02/22-rdf-syntax-ns#"
   xmlns:svg="http://www.w3.org/2000/svg"
   xmlns="http://www.w3.org/2000/svg"
   xmlns:sodipodi="http://sodipodi.sourceforge.net/DTD/sodipodi-0.dtd"
   xmlns:inkscape="http://www.inkscape.org/namespaces/inkscape"
   width="500"
   height="500"
   id="svg2"
   version="1.1"
   inkscape:version="0.48.4 r9939"
   sodipodi:docname="New document 1">
  <defs
     id="defs4" />
  <sodipodi:namedview
     id="base"
     pagecolor="#ffffff"
     bordercolor="#666666"
     borderopacity="1.0"
     inkscape:pageopacity="0.0"
     inkscape:pageshadow="2"
     inkscape:zoom="0.12374369"
     inkscape:cx="-1063.4737"
     inkscape:cy="1102.6069"
     inkscape:document-units="px"
     inkscape:current-layer="layer1"
     showgrid="false"
     inkscape:window-width="1170"
     inkscape:window-height="916"
     inkscape:window-x="2"
     inkscape:window-y="43"
     inkscape:window-maximized="0" />
  <metadata
     id="metadata7">
    <rdf:RDF>
      <cc:Work
         rdf:about="">
        <dc:format>image/svg+xml</dc:format>
        <dc:type
           rdf:resource="http://purl.org/dc/dcmitype/StillImage" />
        <dc:title></dc:title>
      </cc:Work>
    </rdf:RDF>
  </metadata>
  <g
     inkscape:label="Layer 1"
     inkscape:groupmode="layer"
     id="layer1"
     transform="translate(0,-552.36218)">
    <path
       style="fill:#c9bcd1;stroke:#1e003e;stroke-width:5;stroke-linecap:butt;stroke-linejoin:round;stroke-opacity:1;fill-opacity:1;stroke-miterlimit:4;stroke-dasharray:none"
       d="m 72.730984,655.37223 29.294426,10.10153 2.0203,-28.28428 32.32488,-2.0203 -8.08122,-28.28427 41.41625,19.1929 12.12184,-5.05077 24.24366,10.10153 -5.05077,-38.3858 10.10153,8.08122 12.12183,-11.11168 19.1929,28.28428 3.03046,-15.15229 16.16244,25.25381 12.12183,-17.17259 22.22335,24.24366 37.37565,-20.20305 16.16244,30.30458 17.17259,-21.21321 15.15229,7.07107 -10.10153,26.26397 40.40611,9.09137 -20.20306,13.13198 71.72084,-8.08122 -40.40611,31.31473 37.37565,20.20305 -37.37565,-3.03045 32.32489,11.11167 -34.34519,19.1929 33.33503,12.12183 -20.20305,13.13199 14.14214,14.14213 -24.24366,12.12183 23.2335,5.05076 1.01016,29.29443 -35.35534,1.01015 24.24366,27.27412 1.01015,41.41625 -38.38579,11.11168 64.64976,26.26397 -52.52793,3.03046 -15.15229,40.4061 0,20.20303 -29.29443,-1.0101 -60.60915,19.1929 -21.2132,-37.37568 -36.36549,34.34518 -40.40611,-24.24365 -22.22335,26.26395 -30.30458,-40.40609 -21.2132,25.25379 0,-18.18272 -14.14214,6.06091 -1.01015,-31.31473 -17.17259,18.18275 L 100.0051,932.15403 43.43656,925.08296 73.741136,902.85961 42.426407,898.819 85.862967,881.6464 41.416255,871.54488 68.690373,841.2403 31.314729,820.0271 55.55839,801.84435 16.162441,775.58039 39.39595,771.53978 15.152288,738.20474 54.548238,732.14383 25.253814,697.79864 89.903577,695.77833 66.670068,651.33162 z"
       id="path2985"
       inkscape:connector-curvature="0" />
    <path
       style="fill:#ffffff;stroke:#9685ad;stroke-width:3.29999999999999982;stroke-linecap:butt;stroke-linejoin:miter;stroke-opacity:1;fill-opacity:1;stroke-miterlimit:4;stroke-dasharray:none"
       d="m 232.33509,223.2182 -64.64977,22.22336 -35.35534,16.16244 16.16244,13.13198 43.43656,-14.14213 14.14214,21.2132 -39.39595,25.25381 44.44671,-4.04061 4.04061,35.35534 25.25382,-32.32488 -1.01016,39.39595 15.15229,-45.45686 39.39595,38.38579 31.31473,15.15229 -32.32488,-84.85281 -30.30458,-41.41626 17.1726,-25.25381 27.27411,29.29442 13.13199,74.75129 5.05076,20.20305 10.10153,-80.8122 -41.41626,-42.42641 -2.0203,-23.23351 -38.3858,0 -13.13198,19.1929 -41.41626,-11.11168 -18.18274,-34.34518 -29.29443,17.17259 21.21321,28.28427 -56.56855,1.01015 72.73099,18.18275 -37.37565,17.17259 z"
       id="path3755"
       inkscape:connector-curvature="0"
       transform="translate(0,552.36218)" />
    <path
       style="fill:#2e0d3d;fill-opacity:0.48095242;stroke:none"
       d="m 279.28571,201.42857 -18.57142,27.85714 32.14285,40 -2.14286,47.85715 25.71429,20 L 315,322.85714 331.42857,370 347.85714,457.14286 370,450.71429 393.57143,452.85714 337.85714,320.71429 322.14286,310 306.42857,228.57143 z"
       id="path3757"
       inkscape:connector-curvature="0"
       transform="translate(0,552.36218)"
       sodipodi:nodetypes="cccccccccccccc" />
    <path
       style="fill:#220d3d;stroke:none;stroke-width:1px;stroke-linecap:butt;stroke-linejoin:miter;stroke-opacity:1;fill-opacity:0.65714288"
       d="m 295.71429,205 107.85714,42.14286 -70.71429,0 z"
       id="path3759"
       inkscape:connector-curvature="0"
       transform="translate(0,552.36218)" />
    <path
       style="fill:#2e0d3d;fill-opacity:0.48095242;stroke:none"
       d="M 292.85714,192.14286 318.57143,187.85714 365,176.42857 l 53.57143,26.42857 0,13.57143 -55.71429,-27.14286 -53.57143,7.14286 z"
       id="path3761"
       inkscape:connector-curvature="0"
       transform="translate(0,552.36218)"
       sodipodi:nodetypes="cccccccc" />
    <path
       style="fill:#2e0d3d;fill-opacity:0.48095242;stroke:none"
       d="m 292.14286,184.28571 6.42857,-31.42857 47.85714,-14.28571 13.57143,-35 50.71429,11.42857 -40,5.71429 -17.14286,25 -55,10.71428 z"
       id="path3763"
       inkscape:connector-curvature="0"
       transform="translate(0,552.36218)"
       sodipodi:nodetypes="ccccccccc" />
    <path
       style="fill:#2e0d3d;fill-opacity:0.48095242;stroke:none"
       d="M 287.85714,177.85714 274.28571,150 l -26.42857,-13.57143 -6.42857,-27.85714 15,-7.14286 -2.85714,-17.142856 10.71428,19.999996 -9.28571,12.85715 23.57143,21.42857 z"
       id="path3765"
       inkscape:connector-curvature="0"
       transform="translate(0,552.36218)"
       sodipodi:nodetypes="cccccccccc" />
    <path
       style="fill:#8f8298;fill-opacity:0.6142857;stroke:none"
       d="m 229.30463,271.70553 -28.28427,53.53808 -91.92388,27.27412 47.47716,-32.32488 32.32489,-8.08122 z"
       id="path3807"
       inkscape:connector-curvature="0"
       transform="translate(0,552.36218)"
       sodipodi:nodetypes="cccccc" />
    <path
       style="fill:#2e0d3d;fill-opacity:0.48095242;stroke:none"
       d="M 45.714286,370.71429 110,350 l 48.57143,-30.71429 23.57143,-5 -26.42857,12.85715 -44.28572,36.42857 L 62.857143,375 z"
       id="path3767"
       inkscape:connector-curvature="0"
       transform="translate(0,552.36218)"
       sodipodi:nodetypes="cccccccc" />
    <path
       style="fill:#2e0d3d;fill-opacity:0.48095242;stroke:none"
       d="m 248.57143,318.57143 -17.85714,68.57143 -24.28572,60.71428 c 0,0 -15.71428,20 -20,20.71429 -4.28571,0.71428 11.42857,-36.42857 11.42857,-36.42857 l 1.42857,-10.71429 -26.42857,1.42857 -14.28571,8.57143 22.85714,-29.28571 31.42857,7.14285 z"
       id="path3769"
       inkscape:connector-curvature="0"
       transform="translate(0,552.36218)"
       sodipodi:nodetypes="cccsccccccc" />
    <path
       style="fill:#43215a;stroke:none;stroke-width:1px;stroke-linecap:butt;stroke-linejoin:miter;stroke-opacity:1;fill-opacity:0.42857146000000002"
       d="m 42.142857,147.14286 131.428573,52.14285 -57.14286,0 -89.285713,-50.71428 z"
       id="path3771"
       inkscape:connector-curvature="0"
       transform="translate(0,552.36218)" />
    <path
       style="fill:#43215a;stroke:none;stroke-width:1px;stroke-linecap:butt;stroke-linejoin:miter;stroke-opacity:1;fill-opacity:0.42857146"
       d="m 334.28571,245.71429 23.57143,17.85714 0.71429,17.85714 L 380,298.57143 392.85714,335 l 30.71429,12.85714 15.71428,1.42857 -6.42857,5.71429 -35.71428,8.57143 -15,-17.14286 -2.85715,-20 L 367.14286,304.28571 355,298.57143 352.14286,270.71429 z"
       id="path3775"
       inkscape:connector-curvature="0"
       transform="translate(0,552.36218)" />
    <path
       style="fill:#43215a;fill-opacity:0.42857145;stroke:none"
       d="m 252.85714,234.28571 -11.42857,14.28572 5,23.57143 -35,70.71428 -82.85714,65 -7.14286,35 L 135,435 l 75.71429,-77.85714 32.14285,-55 10.46918,-29.70414 -4.04061,-13.86729 17.85715,0.71428 L 270,248.57143 262.85714,227.85714 z"
       id="path3785"
       inkscape:connector-curvature="0"
       transform="translate(0,552.36218)"
       sodipodi:nodetypes="ccccccccccccccc" />
    <path
       style="fill:#43215a;fill-opacity:0.42857145;stroke:none"
       d="m 263.57143,229.28571 6.07143,19.46429 -2.67858,11.42858 -14.10714,39.10713 L 250,466.42857 l 35.71429,-30.71428 10,15 -21.42858,-67.14286 14.28572,-52.85714 L 285,275 z"
       id="path3787"
       inkscape:connector-curvature="0"
       transform="translate(0,552.36218)"
       sodipodi:nodetypes="ccccccccccc" />
    <path
       style="fill:#250f32;fill-opacity:0.53809521;stroke:none"
       d="m 254.55844,177.76134 -45.45687,3.03046 -78.79189,-124.248767 9.09137,29.294423 46.46702,75.761444 14.14213,26.26397 39.39595,9.09137 z"
       id="path3789"
       inkscape:connector-curvature="0"
       transform="translate(0,552.36218)"
       sodipodi:nodetypes="cccccccc" />
    <path
       style="fill:#250f32;stroke:none;stroke-width:1px;stroke-linecap:butt;stroke-linejoin:miter;stroke-opacity:1;fill-opacity:0.53809523999999997"
       d="m 226.27417,225.23851 -73.74114,10.10152 -36.36549,18.18275 -41.416252,19.1929 4.040611,4.04061 66.670071,-20.20305 z"
       id="path3791"
       inkscape:connector-curvature="0"
       transform="translate(0,552.36218)" />
    <path
       style="fill:#8a6d9a;fill-opacity:0.53809521;stroke:none"
       d="m 276.7818,204.0253 7.07107,-23.2335 -40.40611,-129.29953 20.20305,24.243661 11.11168,-16.162441 21.21321,21.213204 38.38579,-15.152289 9.09138,24.243662 7.07106,3.030457 14.14214,-21.213203 18.18274,8.08122 -11.11167,25.253809 39.39595,7.07107 -18.18275,16.16244 68.69037,-11.11167 -38.38579,30.30457 36.36549,22.22336 -38.3858,0 30.30458,10.10152 -32.32488,16.16244 36.36549,14.14214 -18.18275,10.10152 8.08122,15.15229 -21.2132,14.14214 20.62147,6.30601 1.06091,27.57 -34.81436,1.47933 26.26396,27.27412 0,41.41625 -38.38579,12.12183 62.62945,24.24366 -49.49747,2.02031 -17.17259,45.45686 -10e-6,20.20305 -102.0254,-192.93913 -32.32488,-37.37565 z"
       id="path3793"
       inkscape:connector-curvature="0"
       transform="translate(0,552.36218)"
       sodipodi:nodetypes="ccccccccccccccccccccccccccccccccccccc" />
    <path
       style="fill:#e5d2f0;stroke:none;stroke-width:1px;stroke-linecap:butt;stroke-linejoin:miter;stroke-opacity:1;fill-opacity:0.53809523999999997"
       d="m 292.14286,190 4.28571,15 107.14286,43.57143 15.71428,-1.42857 -120.71428,-45.71429 z"
       id="path3795"
       inkscape:connector-curvature="0"
       transform="translate(0,552.36218)" />
    <path
       style="fill:#e5d2f0;stroke:none;stroke-width:1px;stroke-linecap:butt;stroke-linejoin:miter;stroke-opacity:1;fill-opacity:0.53809524"
       d="M 293.57143,180.71429 C 292.85714,177.85714 300.71429,155 300.71429,155 l 55,-8.57143 -52.14286,14.28572 z"
       id="path3797"
       inkscape:connector-curvature="0"
       transform="translate(0,552.36218)" />
    <path
       style="fill:#79588a;fill-opacity:0.53809521;stroke:none"
       d="m 189.90868,260.59385 c -4.04061,-1.01016 -148.492426,58.58884 -148.492426,58.58884 l 45.456865,11.11168 -44.446712,13.13199 32.324881,7.07106 c 0,0 -32.324881,20.20305 -27.274118,20.20305 5.050762,0 158.59395,-87.88327 158.59395,-87.88327 z"
       id="path3799"
       inkscape:connector-curvature="0"
       transform="translate(0,552.36218)"
       sodipodi:nodetypes="cccccscc" />
    <path
       style="fill:#ffffff;fill-opacity:0.53809521;stroke:none"
       d="m 219.2031,281.80705 -30.82452,30.05948 -33.82524,8.32632 -42.42641,32.32488 -63.639608,18.18274 11.111678,-10.10152 45.45686,-20.20305 106.06602,-61.61931 12.12183,3.03046 z"
       id="path3801"
       inkscape:connector-curvature="0"
       transform="translate(0,552.36218)"
       sodipodi:nodetypes="cccccccccc" />
    <path
       style="fill:#ffffff;fill-opacity:0.88095236;stroke:none"
       d="m 295.9747,205.03546 31.66135,44.21211 23.95305,20.4429 c -12.54854,-20.42862 -36.21605,-42.94205 -55.6144,-64.65501 z"
       id="path3803"
       inkscape:connector-curvature="0"
       transform="translate(0,552.36218)"
       sodipodi:nodetypes="cccc" />
    <path
       style="fill:#644c79;stroke:none;stroke-width:1px;stroke-linecap:butt;stroke-linejoin:miter;stroke-opacity:1;fill-opacity:0.61428571"
       d="M 170.71578,200.99485 25.253814,146.44661 121.21831,202.005 l 49.49747,-5.05076 z"
       id="path3805"
       inkscape:connector-curvature="0"
       transform="translate(0,552.36218)" />
    <path
       style="fill:#715184;stroke:none;stroke-width:1px;stroke-linecap:butt;stroke-linejoin:miter;stroke-opacity:1;fill-opacity:0.61428571"
       d="M 191.92898,263.6243 C 180.81731,267.66491 59.599,322.21315 59.599,322.21315 l 30.304577,7.07107 118.187843,-47.47717 z"
       id="path3809"
       inkscape:connector-curvature="0"
       transform="translate(0,552.36218)" />
    <path
       style="fill:#715184;stroke:none;stroke-width:1px;stroke-linecap:butt;stroke-linejoin:miter;stroke-opacity:1;fill-opacity:0.32857143999999999"
       d="M 256.42857,178.57143 203.57143,75 182.85714,70.714285 166.42857,75 128.57143,56.428571 c 0,0 75.71428,125.714289 79.28571,124.999999 3.57143,-0.71428 48.57143,-2.85714 48.57143,-2.85714 z"
       id="path3811"
       inkscape:connector-curvature="0"
       transform="translate(0,552.36218)"
       sodipodi:nodetypes="cccccsc" />
    <path
       style="fill:#715184;fill-opacity:0.32857145;stroke:none"
       d="m 255.71429,302.85714 -67.85715,165.71429 20,-25 13.57143,9.28571 z"
       id="path3821"
       inkscape:connector-curvature="0"
       transform="translate(0,552.36218)"
       sodipodi:nodetypes="ccccc" />
  </g>
</svg>
