<?xml version="1.0" encoding="UTF-8" standalone="no"?>
<!-- Created with Inkscape (http://www.inkscape.org/) -->

<svg
   xmlns:dc="http://purl.org/dc/elements/1.1/"
   xmlns:cc="http://creativecommons.org/ns#"
   xmlns:rdf="http://www.w3.org/1999/02/22-rdf-syntax-ns#"
   xmlns:svg="http://www.w3.org/2000/svg"
   xmlns="http://www.w3.org/2000/svg"
   xmlns:sodipodi="http://sodipodi.sourceforge.net/DTD/sodipodi-0.dtd"
   xmlns:inkscape="http://www.inkscape.org/namespaces/inkscape"
   width="500"
   height="500"
   id="svg3899"
   version="1.1"
   inkscape:version="0.48.4 r9939"
   sodipodi:docname="target_nazca2.svg"
   inkscape:export-filename="/home/campus24/kayleee/Documents/bonzai-2016/art/sprites/target_nazca2.png"
   inkscape:export-xdpi="90"
   inkscape:export-ydpi="90">
  <defs
     id="defs3901" />
  <sodipodi:namedview
     id="base"
     pagecolor="#ffffff"
     bordercolor="#666666"
     borderopacity="1.0"
     inkscape:pageopacity="0.0"
     inkscape:pageshadow="2"
     inkscape:zoom="1.4"
     inkscape:cx="157.20934"
     inkscape:cy="207.18738"
     inkscape:document-units="px"
     inkscape:current-layer="layer1"
     showgrid="false"
     inkscape:window-width="1675"
     inkscape:window-height="958"
     inkscape:window-x="199"
     inkscape:window-y="34"
     inkscape:window-maximized="0" />
  <metadata
     id="metadata3904">
    <rdf:RDF>
      <cc:Work
         rdf:about="">
        <dc:format>image/svg+xml</dc:format>
        <dc:type
           rdf:resource="http://purl.org/dc/dcmitype/StillImage" />
        <dc:title></dc:title>
      </cc:Work>
    </rdf:RDF>
  </metadata>
  <g
     inkscape:label="Layer 1"
     inkscape:groupmode="layer"
     id="layer1"
     transform="translate(0,-552.36218)">
    <path
       style="fill:#4ca95c;stroke:#eaf9ee;stroke-width:7.715;stroke-linecap:butt;stroke-linejoin:miter;stroke-opacity:1;stroke-miterlimit:4;stroke-dasharray:none;fill-opacity:0.30000000999999998"
       d="m 24.935391,597.1948 c 7.422005,54.00581 35.473752,190.02106 43.386366,199.43451 7.912615,9.41345 33.221923,-9.79658 34.945803,1.12136 12.85885,7.91314 -64.73974,124.73546 -84.392073,171.69209 -5.216053,12.46306 14.79547,25.56024 20.112612,14.08189 26.897812,-58.06546 82.933141,-187.30195 82.933141,-187.30195 0,0 13.76278,-12.57525 16.86204,-7.29347 29.4844,50.24746 106.52553,160.41251 95.87743,163.96188 0,0 -18.013,1.26751 -15.7785,8.21789 2.10257,6.54005 13.74277,-1.52019 17.32615,3.53554 7.34821,10.36744 -22.5633,27.29799 -13.11491,35.79546 7.67466,6.9023 15.21292,-28.34657 21.85628,-20.4895 6.47818,7.66173 -12.40627,25.3836 -2.54394,27.2285 11.08479,2.0735 5.60392,-26.7523 17.49136,-26.01614 8.42754,0.5219 -10.00012,28.44324 -0.2693,29.30564 8.15272,0.7226 10.30459,-40.11407 10.30459,-40.11407 2.25611,-0.87168 -68.44134,-124.50998 -95.95548,-166.02013 -7.57024,-11.4211 11.44191,-25.156 19.44412,-8.28047 30.65196,64.64062 100.51642,164.98873 98.84731,171.39641 -1.9313,7.41422 -11.03621,17.37652 -11.0946,17.49114 -3.91886,7.69349 -1.72217,12.27412 0,13.67521 0,0 3.46583,1.45521 5.75244,-0.17857 4.70452,-3.36147 2.63207,-15.08513 8.29926,-16.23165 9.18707,-1.85861 7.0899,20.88853 16.46275,20.96873 4.13909,0.035 11.55621,1.4938 9.18862,-2.5509 -2.8279,-4.8312 -21.91742,-23.55594 -10.6629,-23.88798 7.23365,-0.21341 9.78031,15.16536 16.86203,13.67525 2.67467,-0.56279 5.25377,-5.01298 3.74711,-7.29346 -4.7533,-7.19459 -18.13513,-15.23211 -24.64543,-26.04191 -35.00402,-58.12122 -86.92172,-138.31745 -88.35353,-164.98849 -0.29786,-5.54828 3.89377,-4.95496 9.43264,-4.51556 9.50238,0.75382 15.67579,15.38481 24.42965,11.61209 7.89798,-3.40384 0.60505,-20.35461 8.2928,-23.50686 11.15345,-4.57331 104.93955,152.76297 102.42737,156.04525 -3.67739,4.80471 -9.95438,10.79065 -10.54263,17.22123 -3.17188,11.89811 6.90599,15.03866 8.93609,8.6471 0,0 1.6496,-12.2613 6.43119,-12.38478 4.1154,-0.10628 -9.61145,6.02265 1.99983,16.03151 11.2633,3.08044 10.8044,10.40716 16.86203,14.58696 7.0321,4.85218 9.19578,-4.13208 7.49423,-7.29348 0,0 -15.68938,-14.29467 -10.30457,-19.14537 5.61457,-5.05768 11.33392,11.24087 18.7356,12.76358 1.55797,0.32051 5.18897,-0.65915 5.18897,-0.65915 -6.58484,-1.90637 -92.99973,-138.01205 -127.11074,-202.14786 -2.67326,-5.02628 4.0338,-11.17286 8.06415,-7.15214 15.93108,15.89302 92.26173,110.24838 119.11142,175.45647 1.98396,4.81833 -2.86429,8.01873 -0.56991,10.79888 1.40467,1.70207 8.17809,0.83721 10.59807,3.68961 3.183,3.75176 -1.16019,11.27504 2.51684,14.54409 4.20676,3.73999 7.89817,2.61 10.29604,0.15407 5.55989,-5.69453 -7.22324,-15.14376 0.0819,-18.30204 6.09634,-2.63567 4.90589,16.67051 17.77492,11.16263 3.10555,-4.49731 -5.26666,-4.52434 -4.87159,-13.70074 9.31292,-6.13646 14.87225,-6.74949 24.5274,-7.98553 0,0 1.04659,-8.03068 -4.43991,-12.35697 -12.23454,-9.64735 -27.37965,19.8721 -35.30462,6.45756 C 397.45294,870.60227 319.0718,751.06908 308.64497,738.64624 c 5.78292,-8.01423 55.44633,-31.87351 93.06305,-31.79215 9.61713,0.0208 35.84648,18.22978 54.48828,13.00951 3.56674,-0.99879 1.78741,-4.70202 -0.29349,-8.94573 -4.90826,-10.00972 -23.31804,-12.83511 -34.44927,-13.4525 -9.91607,-0.54999 -30.99178,-5.2311 -19.31227,-15.40193 11.67952,-10.17084 42.70225,13.50322 70.67688,11.2265 12.91457,-1.05105 11.87133,-11.13954 5.62882,-13.72696 -55.29438,-22.9186 -80.9111,-18.38946 -110.10587,-47.39671 -9.09708,-9.31912 -20.43803,-3.18013 -14.0517,6.38179 0,0 4.25129,7.03783 3.76516,14.3305 -0.35825,5.37431 -5.05237,6.24791 -10.34895,4.7681 -7.38148,-2.06231 -3.2943,-12.79117 -10.63539,-15.94992 -7.86929,-3.38602 -13.48611,-2.65916 -15.65018,5.62984 -2.84607,10.90123 14.20859,15.12617 15.02375,27.64208 0.97152,14.91659 -12.08077,28.46844 -45.42439,30.06372 -39.99549,1.91354 -166.54779,29.3497 -174.08087,36.32951 -6.64103,6.15329 -20.241774,30.285 -28.741347,25.68691 C 72.434597,758.52157 40.851001,599.89451 38.563916,588.45909 37.105759,581.1683 22.606078,580.24569 24.935391,597.1948 z"
       id="path3907"
       inkscape:connector-curvature="0"
       sodipodi:nodetypes="szcsscscssssssscsssscsssssssssssssccscsssscssssssssccssscsssszsscsssssssssss" />
  </g>
</svg>
