<?xml version="1.0" encoding="UTF-8" standalone="no"?>
<!-- Created with Inkscape (http://www.inkscape.org/) -->

<svg
   xmlns:dc="http://purl.org/dc/elements/1.1/"
   xmlns:cc="http://creativecommons.org/ns#"
   xmlns:rdf="http://www.w3.org/1999/02/22-rdf-syntax-ns#"
   xmlns:svg="http://www.w3.org/2000/svg"
   xmlns="http://www.w3.org/2000/svg"
   xmlns:sodipodi="http://sodipodi.sourceforge.net/DTD/sodipodi-0.dtd"
   xmlns:inkscape="http://www.inkscape.org/namespaces/inkscape"
   id="svg4215"
   version="1.1"
   inkscape:version="0.48.4 r9939"
   width="1024"
   height="1024"
   sodipodi:docname="turn_green.svg"
   inkscape:export-filename="/home/kaylee/Documents/bonzai-2016/art/sprites/turn_green.png"
   inkscape:export-xdpi="43.945312"
   inkscape:export-ydpi="43.945312">
  <metadata
     id="metadata4221">
    <rdf:RDF>
      <cc:Work
         rdf:about="">
        <dc:format>image/svg+xml</dc:format>
        <dc:type
           rdf:resource="http://purl.org/dc/dcmitype/StillImage" />
        <dc:title></dc:title>
      </cc:Work>
    </rdf:RDF>
  </metadata>
  <defs
     id="defs4219" />
  <sodipodi:namedview
     pagecolor="#ffffff"
     bordercolor="#666666"
     borderopacity="1"
     objecttolerance="10"
     gridtolerance="10"
     guidetolerance="10"
     inkscape:pageopacity="0"
     inkscape:pageshadow="2"
     inkscape:window-width="1467"
     inkscape:window-height="848"
     id="namedview4217"
     showgrid="false"
     inkscape:zoom="0.4609375"
     inkscape:cx="280.61827"
     inkscape:cy="502.1966"
     inkscape:window-x="65"
     inkscape:window-y="24"
     inkscape:window-maximized="0"
     inkscape:current-layer="svg4215" />
  <path
     style="fill:#00ad3b;fill-opacity:0.10196079000000000;stroke:#287a44;stroke-width:27;stroke-linecap:butt;stroke-linejoin:round;stroke-miterlimit:4;stroke-opacity:0.81960785000000003;stroke-dasharray:none"
     d="m 875.28739,148.05002 c -63.03227,-5.94138 -32.1828,-35.99662 -47.72885,-54.237303 l -28.20339,8.135603 C 768.78449,93.195237 772.1256,64.552087 755.96532,42.82967 745.5292,90.230097 732.99125,59.862787 721.25345,59.100857 L 700.64329,15.711026 c -19.38621,17.856098 -31.18165,10.40964 -46.64407,15.18644 -19.13473,6.316076 -22.3898,-7.784554 -32.54238,-13.016949 l -21.69491,13.016949 c -18.63926,9.133663 -27.72018,-8.018081 -41.22034,-13.016949 0,0 -6.50847,8.677966 -15.18644,8.677966 -8.67797,0 -44.47458,-9.762711 -44.47458,-9.762711 -30.72872,8.686576 -54.91667,32.065661 -106.30507,9.762711 -20.06931,-5.252283 -30.67901,49.634924 -61.83052,4.338983 -11.54717,50.609301 -28.63057,35.286001 -48.81356,28.203391 -28.95563,41.033183 -29.40697,16.89095 -50.37956,10.02591 l -5.42373,42.305093 c -45.22261,27.54241 -47.70143,19.17571 -76.46796,5.57792 26.24034,12.7211 -42.53429,62.86251 -1.36117,69.79594 -70.898739,7.53 -8.33961,-1.76664 -54.711929,34.63477 33.428969,49.23969 -9.39444,41.46467 20.067799,53.15255 -35.337889,-0.28896 -66.725259,10.91085 -76.352229,27.85763 34.05996,28.05301 26.19933,37.65657 -10.28651,49.53155 62.18594,64.28755 -12.01315,72.73716 27.11868,66.16949 -38.24693,9.11563 -33.90319,16.79131 -20.61017,48.81356 41.3451,16.53437 -40.0710601,50.17738 20.1157,47.22499 -73.59306,35.65349 -12.80757,44.05863 -30.96315,67.75806 55.03719,8.28135 1.44652,28.11886 -3.76742,42.8099 44.22827,-28.70083 39.19338,8.1502 58.96447,10.34264 -74.3313601,55.12226 -21.57433,49.2424 -30.91526,59.66102 35.83477,7.50298 51.124175,-4.4954 47.930895,13.12596 -4.18006,15.14378 -65.14358,63.41176 17.526094,42.75442 4.91119,15.76654 -13.310544,106.90098 19.46429,57.7228 14.81008,38.84592 36.67496,22.48118 27.3978,44.65132 16.19028,-10.9983 1.6119,-25.36766 23.92828,2.4327 13.05666,19.48923 18.25635,27.69075 6.23591,45.25096 48.96487,-23.87815 35.0836,15.2815 43.78462,23.61443 25.90751,1.36266 10.83848,11.89375 60.01407,5.5405 14.82347,-1.91512 23.15817,12.42085 21.81377,24.21563 27.9205,4.1524 9.30008,29.8167 60.37353,8.8773 27.31913,-4.5365 67.24491,2.7539 82.06846,14.8781 22.05338,-15.0109 -9.09768,21.8416 60.92252,10.5204 8.06005,47.5638 42.30655,-4.9808 68.43478,-4.2751 6.55045,-39.75874 8.54456,-7.5637 43.4124,-2.8237 41.74722,-11.7226 46.82413,-30.24075 67.94419,-8.2099 10.37665,-21.24056 2.17053,-39.12838 50.87403,-23.54668 37.80073,-14.45357 9.99185,-68.56602 40.25433,-39.60574 13.8886,13.29098 -1.18059,-64.83779 32.00625,-38.38692 -2.04395,-35.35357 71.41219,41.7391 26.40613,-30.13226 18.21986,-37.51459 9.23506,-39.60774 47.35656,-15.42707 11.2638,-47.42202 33.30411,-37.26827 10.7065,-50.82887 l 59.05751,-20.31504 c -20.9141,-17.79887 -9.0652,13.46558 -13.2801,-50.71984 10.5904,-17.04171 20.1431,13.51449 21.4317,-27.30477 37.2694,-21.89145 15.9693,-35.88049 0,-52.06779 -14.4185,-9.82214 -0.7551,-9.93122 9.7627,-39.05085 l -21.6949,-31.45762 c 19.1401,4.00637 3.2101,12.76051 18.4407,-37.96611 -17.356,-9.40113 68.693,-41.01731 -21.3866,-35.8737 -10.1747,-5.81412 27.4265,-27.57009 30.4606,-44.77735 1.8319,-10.38923 -23.106,-51.07969 -16.6672,-59.28114 29.5514,-37.64161 -2.0021,-26.90061 -2.0021,-26.90061 -10.3354,-32.00756 -36.7848,-31.60967 -1.7946,-52.28584 -29.4334,12.94601 -52.69441,12.87966 -48.3802,-41.66965 l 4.6116,-55.60781 c -20.49261,25.10967 -22.90931,26.94502 -39.64111,19.17577 2.4871,-16.99767 -12.898,-39.63463 22.555,-48.7205 z"
     id="path4225"
     inkscape:connector-curvature="0"
     sodipodi:nodetypes="ccccccccccsccccccccccccccccccccccccccsccccccccsccccccccccccssccccccc" />
  <path
     style="fill:none;stroke:#ffffff;stroke-width:16;stroke-linecap:butt;stroke-linejoin:round;stroke-miterlimit:4;stroke-opacity:0.74761902999999996;stroke-dasharray:none"
     d="m 889.6975,589.17244 c -23.4686,-42.97038 8.7543,-36.42106 13.5192,-54.38891 l -17.2911,-14.48472 c -7.6885,-23.42013 11.7726,-33.86435 18.4628,-53.75509 -34.3236,14.14171 -20.6315,-7.22746 -25.2185,-15.07802 l 18.4002,-32.259 c -19.6006,-4.56861 -20.0072,-15.39275 -29.6863,-23.19494 -12.2323,-9.47737 -4.7667,-17.75633 -5.8572,-26.55584 l -17.55276,-8.17284 c -13.79105,-7.92228 -6.92062,-21.27202 -9.60275,-32.11242 0,0 -8.26849,-0.35502 -12.01408,-5.91161 -3.7457,-5.55659 -13.05465,-32.76649 -13.05465,-32.76649 -18.72788,-15.8597 -43.87544,-21.07656 -52.02535,-63.77923 -5.3582,-15.15801 -44.46661,2.16163 -29.4171,-37.68448 -36.82179,14.83999 -34.55569,-2.83054 -38.8115,-18.86545 -38.3115,-0.51382 -23.31867,-11.40902 -28.05223,-27.85394 l -28.95467,15.11267 c -36.84577,-16.85651 -32.65229,-22.1194 -36.51436,-46.5127 3.32323,22.39062 -57.90493,0.38174 -44.4954,29.7913 -35.33858,-42.08908 -2.48819,-6.11605 -45.4033,-19.81679 -16.54745,43.03697 -30.13984,12.20098 -24.77599,36.20068 -15.07087,-22.75415 -35.66406,-37.93147 -50.48033,-36.65063 -2.94678,34.13324 -12.38111,33.31904 -35.59967,15.17373 -13.60172,68.0612 -50.94332,24.2629 -29.92148,46.43406 -22.24278,-20.48517 -25.19663,-14.33176 -39.60391,8.24795 7.4439,33.73758 -41.37043,7.4993 -13.53513,44.74042 -65.39655,-41.55059 -34.12612,10.36126 -55.99029,9.94157 18.54562,38.87904 -17.06493,13.27945 -28.55736,16.395 37.14532,15.7109 11.78956,28.67647 18.94398,42.29929 -66.75996,-23.3787 -40.28985,7.81899 -50.87586,6.41502 10.74707,26.24158 7.34153,22.58756 -5.12217,28.28431 -11.331,3.97645 -68.00914,-13.85391 -19.3317,30.00507 -7.79877,10.07127 -80.48663,27.32787 -35.40279,26.70888 -18.04518,26.5489 1.6871,33.35982 -16.26415,37.15938 13.90702,5.53501 16.65427,-10.11246 8.79763,16.39025 -6.62492,16.92235 8.01276,32.02772 -8.22249,32.04549 36.15586,20.8625 5.52946,29.17788 4.04287,38.41006 10.32505,17.18749 -2.80407,12.16516 22.41797,40.86168 7.60295,8.65025 2.18185,20.28511 -5.81841,24.60599 9.4389,19.70202 -14.74325,19.05406 20.47398,42.55777 14.64544,15.49973 27.29203,44.26743 26.063,59.08553 18.96196,7.52638 -17.66709,3.77014 19.67731,43.63114 -26.44299,26.05674 21.39385,24.90112 32.22745,41.94133 27.8391,-13.27254 8.44627,2.14826 20.51409,26.55692 25.3937,21.58112 39.23454,16.69651 34.49113,39.89852 17.841,-2.68722 25.55206,-15.80014 36.77137,22.23053 25.40822,17.85455 47.44685,-23.72457 42.29023,8.37566 -2.36656,14.73204 40.27921,-29.24057 37.96343,3.62974 21.35837,-16.84032 4.56554,64.0628 30.35336,3.67027 31.46418,-4.81456 28.90291,-11.48722 30.14523,23.54551 34.6944,-13.6212 37.81989,4.95217 36.59707,-15.47479 l 38.27057,28.8903 c 2.17007,-21.21095 -12.38381,0.1112 26.17532,-30.78573 15.29181,-0.70564 0.1924,18.83507 26.42756,1.72739 29.85801,14.24656 29.46476,-5.53783 32.75529,-22.8745 -0.0443,-13.54741 5.92171,-4.84649 28.78032,-10.90475 l 10.42558,-27.71148 c 5.741,14.01569 -6.64193,7.66143 31.8435,-4.87157 -1.57705,-15.24334 55.45309,25.96502 13.33685,-29.45414 -0.734,-9.06924 29.18195,5.44932 41.31648,-0.16744 7.32641,-3.39123 22.16064,-37.23542 30.09913,-36.71567 36.43506,2.38529 16.05882,-13.09998 16.05882,-13.09998 15.67456,-20.67947 4.00804,-37.44049 32.11784,-24.11941 -20.84832,-13.15903 -30.84662,-28.08243 5.33196,-49.28469 l 36.97266,-21.47688 c -24.64125,-2.09038 -26.83895,-2.83151 -29.17325,-16.95826 11.76645,-5.87492 19.36655,-25.67107 40.38475,-6.96177 z"
     id="path4225-8"
     inkscape:connector-curvature="0"
     sodipodi:nodetypes="ccccccccccsccccccccccccccccccccccccccsccccccccsccccccccccccssccccccc" />
</svg>
