<?xml version="1.0" encoding="UTF-8" standalone="no"?>
<!-- Created with Inkscape (http://www.inkscape.org/) -->

<svg
   xmlns:dc="http://purl.org/dc/elements/1.1/"
   xmlns:cc="http://creativecommons.org/ns#"
   xmlns:rdf="http://www.w3.org/1999/02/22-rdf-syntax-ns#"
   xmlns:svg="http://www.w3.org/2000/svg"
   xmlns="http://www.w3.org/2000/svg"
   xmlns:sodipodi="http://sodipodi.sourceforge.net/DTD/sodipodi-0.dtd"
   xmlns:inkscape="http://www.inkscape.org/namespaces/inkscape"
   width="512"
   height="512"
   id="svg2"
   version="1.1"
   inkscape:version="0.48.4 r9939"
   sodipodi:docname="laser_base.svg">
  <defs
     id="defs4" />
  <sodipodi:namedview
     id="base"
     pagecolor="#ffffff"
     bordercolor="#666666"
     borderopacity="1.0"
     inkscape:pageopacity="0.0"
     inkscape:pageshadow="2"
     inkscape:zoom="0.98994949"
     inkscape:cx="203.13217"
     inkscape:cy="252.9467"
     inkscape:document-units="px"
     inkscape:current-layer="layer1"
     showgrid="false"
     inkscape:window-width="1153"
     inkscape:window-height="818"
     inkscape:window-x="52"
     inkscape:window-y="52"
     inkscape:window-maximized="0" />
  <metadata
     id="metadata7">
    <rdf:RDF>
      <cc:Work
         rdf:about="">
        <dc:format>image/svg+xml</dc:format>
        <dc:type
           rdf:resource="http://purl.org/dc/dcmitype/StillImage" />
        <dc:title></dc:title>
      </cc:Work>
    </rdf:RDF>
  </metadata>
  <g
     inkscape:label="Layer 1"
     inkscape:groupmode="layer"
     id="layer1"
     transform="translate(0,-540.36218)">
    <path
       style="fill:#757575;fill-opacity:0.84313725;stroke:#434343;stroke-width:10;stroke-linecap:butt;stroke-linejoin:round;stroke-miterlimit:4;stroke-opacity:1;stroke-dasharray:none"
       d="m 152.14286,289.14286 -137.857146,60 85,-12.14286 -47.857143,25 71.428569,-2.85714 0,30 L 175,361.28572 210,394.85714 237.14285,360.57143 265,392.71429 291.42858,360.57142 354.28572,393.42857 340,356.28571 411.42858,374.85714 371.42857,339.14286 470,357.71428 329.28572,290.57143"
       id="path2988"
       inkscape:connector-curvature="0"
       transform="translate(0,540.36218)"
       sodipodi:nodetypes="ccccccccccccccccc" />
    <path
       style="fill:#707070;fill-opacity:0.99607843;stroke:none"
       d="M 158.27556,289.77049 90.714285,321.28571 115,320.57143 l 0,10.71428 27.14286,-14.99999 1.42857,30.71428 16.85107,-19.11276 20.13671,15.4279 11.99767,-17.67789 -0.24071,-36.45107 z"
       id="path3758"
       inkscape:connector-curvature="0"
       transform="translate(0,540.36218)"
       sodipodi:nodetypes="ccccccccccc" />
    <path
       style="fill:#707070;fill-opacity:0.99607843;stroke:none"
       d="m 326.55603,830.71504 68.27583,37.26018 -24.18032,-2.37025 -17.87416,3.18929 -8.91287,-9.31764 -2.45022,24.11657 -16.57866,-13.78979 -21.14279,14.01749 -10.76308,-18.45557 2.58894,-34.75577 z"
       id="path3758-0"
       inkscape:connector-curvature="0"
       sodipodi:nodetypes="ccccccccccc" />
    <path
       style="fill:#434343;fill-opacity:1;stroke:none"
       d="m 154.04826,293.30197 c 3.60574,-2.02033 4.35136,-2.06137 5.80838,-3.78807 l -8.83883,-5.80838 c -5.1481,4.83482 -2.35703,6.95378 -3.53554,9.98424 z"
       id="path3778"
       inkscape:connector-curvature="0"
       transform="translate(0,540.36218)"
       sodipodi:nodetypes="ccccc" />
    <path
       style="fill:#434343;fill-opacity:1;stroke:none"
       d="m 336.00655,835.68262 c -4.03834,-1.85653 -8.68332,-2.46225 -9.57479,-4.80906 l 8.83883,-4.98763 3.53554,9.09138 z"
       id="path3778-4"
       inkscape:connector-curvature="0"
       sodipodi:nodetypes="ccccc" />
    <path
       style="fill:#d5d5d5;fill-opacity:0.97254902;stroke:none"
       d="m 224.28571,289.14286 c 0,0 0.71429,25.71428 -2.14285,27.85714 -2.85714,2.14285 -34.28572,24.28571 -34.28572,24.28571 L 180,347 158.57143,334.14286 c 0,0 -12.5,16.42857 -16.07143,17.14285 -3.57143,0.71429 -7.5,-25 -7.5,-25 l -22.14286,7.5 L 111.07142,322 l -53.214277,15 49.999997,-8.57143 0,12.85714 c 0,0 -21.428568,9.28572 -17.142854,9.28572 4.285714,0 33.571424,-10 33.571424,-10 l 9.28572,15.71428 0,16.42858 27.85714,-17.85715 15.35715,-2.14285 31.07142,20 20.71429,-28.57143 33.57143,25.71428 L 285,344.14286 l 46.42857,25 -3.57143,-23.57143 c 0,0 49.28572,13.57143 49.28572,10.71428 0,-2.85714 -20,-24.99999 -20,-24.99999 l 55,6.42857 c 0,0 -21.78572,-7.85714 -25.35715,-8.57143 -3.57143,-0.71428 -36.42856,-0.35715 -36.42856,-0.35715 L 344.28571,322 l 0,25 -18.92857,-11.07143 -16.78572,11.42858 -44.8304,-28.93229 -1.55484,-28.48106 z"
       id="path3798"
       inkscape:connector-curvature="0"
       transform="translate(0,540.36218)"
       sodipodi:nodetypes="cscccsccccccscccccccccccsccscccccccc" />
  </g>
</svg>
