<?xml version="1.0" encoding="UTF-8" standalone="no"?>
<!-- Created with Inkscape (http://www.inkscape.org/) -->

<svg
   xmlns:dc="http://purl.org/dc/elements/1.1/"
   xmlns:cc="http://creativecommons.org/ns#"
   xmlns:rdf="http://www.w3.org/1999/02/22-rdf-syntax-ns#"
   xmlns:svg="http://www.w3.org/2000/svg"
   xmlns="http://www.w3.org/2000/svg"
   xmlns:sodipodi="http://sodipodi.sourceforge.net/DTD/sodipodi-0.dtd"
   xmlns:inkscape="http://www.inkscape.org/namespaces/inkscape"
   width="500"
   height="500"
   id="svg4436"
   version="1.1"
   inkscape:version="0.48.4 r9939"
   sodipodi:docname="New document 8">
  <defs
     id="defs4438" />
  <sodipodi:namedview
     id="base"
     pagecolor="#ffffff"
     bordercolor="#666666"
     borderopacity="1.0"
     inkscape:pageopacity="0.0"
     inkscape:pageshadow="2"
     inkscape:zoom="0.7"
     inkscape:cx="256.12902"
     inkscape:cy="299.62321"
     inkscape:document-units="px"
     inkscape:current-layer="layer1"
     showgrid="false"
     inkscape:window-width="891"
     inkscape:window-height="786"
     inkscape:window-x="918"
     inkscape:window-y="89"
     inkscape:window-maximized="0" />
  <metadata
     id="metadata4441">
    <rdf:RDF>
      <cc:Work
         rdf:about="">
        <dc:format>image/svg+xml</dc:format>
        <dc:type
           rdf:resource="http://purl.org/dc/dcmitype/StillImage" />
        <dc:title></dc:title>
      </cc:Work>
    </rdf:RDF>
  </metadata>
  <g
     inkscape:label="Layer 1"
     inkscape:groupmode="layer"
     id="layer1"
     transform="translate(0,-552.36218)">
    <path
       sodipodi:type="arc"
       style="fill:#bad9ad;fill-opacity:0.30000000999999998;stroke:#1c3414;stroke-width:6.70487776;stroke-linejoin:bevel;stroke-miterlimit:4;stroke-opacity:1;stroke-dasharray:none"
       id="path4444"
       sodipodi:cx="256.57874"
       sodipodi:cy="253.0177"
       sodipodi:rx="58.588848"
       sodipodi:ry="52.022858"
       d="m 315.16758,253.0177 a 58.588848,52.022858 0 1 1 -117.17769,0 58.588848,52.022858 0 1 1 117.17769,0 z"
       transform="matrix(0.82707563,0,0,0.9314638,37.789981,566.68535)" />
    <path
       sodipodi:type="arc"
       style="fill:none;stroke:#1c3414;stroke-width:1.32450914;stroke-linejoin:bevel;stroke-miterlimit:4;stroke-opacity:1;stroke-dasharray:none"
       id="path4954"
       sodipodi:cx="287.14285"
       sodipodi:cy="256.42856"
       sodipodi:rx="125.71429"
       sodipodi:ry="116.42857"
       d="m 412.85714,256.42856 a 125.71429,116.42857 0 1 1 -251.42857,0 125.71429,116.42857 0 1 1 251.42857,0 z"
       transform="matrix(0.97070886,0,0,1.0481273,-28.732111,533.59241)" />
    <path
       sodipodi:type="arc"
       style="fill:none;stroke:#1c3414;stroke-width:1.32450914;stroke-linejoin:bevel;stroke-miterlimit:4;stroke-opacity:1;stroke-dasharray:none"
       id="path4954-9"
       sodipodi:cx="287.14285"
       sodipodi:cy="256.42856"
       sodipodi:rx="125.71429"
       sodipodi:ry="116.42857"
       d="m 412.85714,256.42856 a 125.71429,116.42857 0 1 1 -251.42857,0 125.71429,116.42857 0 1 1 251.42857,0 z"
       transform="matrix(0.79112394,0,0,0.85421971,22.834415,583.31585)" />
    <path
       sodipodi:type="arc"
       style="fill:none;stroke:#1c3414;stroke-width:1.32450914;stroke-linejoin:bevel;stroke-miterlimit:4;stroke-opacity:1;stroke-dasharray:none"
       id="path4954-1"
       sodipodi:cx="287.14285"
       sodipodi:cy="256.42856"
       sodipodi:rx="125.71429"
       sodipodi:ry="116.42857"
       d="m 412.85714,256.42856 a 125.71429,116.42857 0 1 1 -251.42857,0 125.71429,116.42857 0 1 1 251.42857,0 z"
       transform="matrix(0.90979254,0,0,0.98235267,-11.240425,550.4589)" />
    <path
       sodipodi:type="arc"
       style="fill:none;stroke:#f0f8ec;stroke-width:4.62597153000000016;stroke-linejoin:bevel;stroke-miterlimit:4;stroke-opacity:1;stroke-dasharray:none"
       id="path4954-3"
       sodipodi:cx="287.14285"
       sodipodi:cy="256.42856"
       sodipodi:rx="125.71429"
       sodipodi:ry="116.42857"
       d="m 412.85714,256.42856 a 125.71429,116.42857 0 1 1 -251.42857,0 125.71429,116.42857 0 1 1 251.42857,0 z"
       transform="matrix(1.1075735,0,0,1.1959076,-68.031814,495.69732)" />
    <path
       sodipodi:type="arc"
       style="fill:none;stroke:#f0f8ec;stroke-width:4.62597132;stroke-linejoin:bevel;stroke-miterlimit:4;stroke-opacity:1;stroke-dasharray:none"
       id="path4954-3-4"
       sodipodi:cx="287.14285"
       sodipodi:cy="256.42856"
       sodipodi:rx="125.71429"
       sodipodi:ry="116.42857"
       d="m 412.85714,256.42856 a 125.71429,116.42857 0 1 1 -251.42857,0 125.71429,116.42857 0 1 1 251.42857,0 z"
       transform="matrix(1.3659311,0,0,1.4748703,-142.21735,424.16332)" />
    <path
       sodipodi:type="arc"
       style="fill:none;stroke:#f0f8ec;stroke-width:4.62597132;stroke-linejoin:bevel;stroke-miterlimit:4;stroke-opacity:1;stroke-dasharray:none"
       id="path4954-3-4-1"
       sodipodi:cx="287.14285"
       sodipodi:cy="256.42856"
       sodipodi:rx="125.71429"
       sodipodi:ry="116.42857"
       d="m 412.85714,256.42856 a 125.71429,116.42857 0 1 1 -251.42857,0 125.71429,116.42857 0 1 1 251.42857,0 z"
       transform="matrix(1.6391172,0,0,1.7698444,-220.66079,348.52353)" />
    <path
       sodipodi:type="arc"
       style="fill:none;stroke:#f0f8ec;stroke-width:4.62597132;stroke-linejoin:bevel;stroke-miterlimit:4;stroke-opacity:1;stroke-dasharray:none"
       id="path4954-3-4-1-2"
       sodipodi:cx="287.14285"
       sodipodi:cy="256.42856"
       sodipodi:rx="125.71429"
       sodipodi:ry="116.42857"
       d="m 412.85714,256.42856 a 125.71429,116.42857 0 1 1 -251.42857,0 125.71429,116.42857 0 1 1 251.42857,0 z"
       transform="matrix(1.8342502,0,0,1.9805402,-276.69184,294.49511)" />
    <path
       sodipodi:type="arc"
       style="fill:#ffffff;fill-opacity:1;stroke:none"
       id="path5065"
       sodipodi:cx="164.65486"
       sodipodi:cy="349.99234"
       sodipodi:rx="16.162441"
       sodipodi:ry="16.667517"
       d="m 180.8173,349.99234 a 16.162441,16.667517 0 1 1 -32.32488,0 16.162441,16.667517 0 1 1 32.32488,0 z"
       transform="matrix(0.56250001,0,0,0.63636363,90.219246,649.32754)" />
    <path
       sodipodi:type="arc"
       style="fill:#ffffff;fill-opacity:1;stroke:none"
       id="path5065-1"
       sodipodi:cx="164.65486"
       sodipodi:cy="349.99234"
       sodipodi:rx="16.162441"
       sodipodi:ry="16.667517"
       d="m 180.8173,349.99234 a 16.162441,16.667517 0 1 1 -32.32488,0 16.162441,16.667517 0 1 1 32.32488,0 z"
       transform="matrix(0.56250001,0,0,0.63636363,206.38679,684.17782)" />
    <path
       sodipodi:type="arc"
       style="fill:#ffffff;fill-opacity:1;stroke:none"
       id="path5065-6"
       sodipodi:cx="164.65486"
       sodipodi:cy="349.99234"
       sodipodi:rx="16.162441"
       sodipodi:ry="16.667517"
       d="m 180.8173,349.99234 a 16.162441,16.667517 0 1 1 -32.32488,0 16.162441,16.667517 0 1 1 32.32488,0 z"
       transform="matrix(1.375,0,0,1.4242424,62.503198,155.88813)" />
    <path
       sodipodi:type="arc"
       style="fill:#ffffff;fill-opacity:1;stroke:none"
       id="path5065-0"
       sodipodi:cx="164.65486"
       sodipodi:cy="349.99234"
       sodipodi:rx="16.162441"
       sodipodi:ry="16.667517"
       d="m 180.8173,349.99234 a 16.162441,16.667517 0 1 1 -32.32488,0 16.162441,16.667517 0 1 1 32.32488,0 z"
       transform="matrix(0.56250001,0,0,0.63636363,-7.7655475,461.94426)" />
    <path
       sodipodi:type="arc"
       style="fill:#ffffff;fill-opacity:1;stroke:none"
       id="path5065-68"
       sodipodi:cx="164.65486"
       sodipodi:cy="349.99234"
       sodipodi:rx="16.162441"
       sodipodi:ry="16.667517"
       d="m 180.8173,349.99234 a 16.162441,16.667517 0 1 1 -32.32488,0 16.162441,16.667517 0 1 1 32.32488,0 z"
       transform="matrix(1.4021893,0,0,1.6220276,-176.32905,284.65472)" />
    <path
       sodipodi:type="arc"
       style="fill:#ffffff;fill-opacity:1;stroke:none"
       id="path5065-1-5"
       sodipodi:cx="164.65486"
       sodipodi:cy="349.99234"
       sodipodi:rx="16.162441"
       sodipodi:ry="16.667517"
       d="m 180.8173,349.99234 a 16.162441,16.667517 0 1 1 -32.32488,0 16.162441,16.667517 0 1 1 32.32488,0 z"
       transform="matrix(0.56250001,0,0,0.63636363,138.14668,553.45632)" />
    <path
       sodipodi:type="arc"
       style="fill:#ffffff;fill-opacity:1;stroke:none"
       id="path5065-1-6"
       sodipodi:cx="164.65486"
       sodipodi:cy="349.99234"
       sodipodi:rx="16.162441"
       sodipodi:ry="16.667517"
       d="m 180.8173,349.99234 a 16.162441,16.667517 0 1 1 -32.32488,0 16.162441,16.667517 0 1 1 32.32488,0 z"
       transform="matrix(0.56250001,0,0,0.63636363,190.95307,580.40483)" />
    <path
       sodipodi:type="arc"
       style="fill:#ffffff;fill-opacity:1;stroke:none"
       id="path5065-1-8"
       sodipodi:cx="164.65486"
       sodipodi:cy="349.99234"
       sodipodi:rx="16.162441"
       sodipodi:ry="16.667517"
       d="m 180.8173,349.99234 a 16.162441,16.667517 0 1 1 -32.32488,0 16.162441,16.667517 0 1 1 32.32488,0 z"
       transform="matrix(0.56250001,0,0,0.63636363,143.81021,610.35408)" />
    <path
       sodipodi:type="arc"
       style="fill:#ffffff;fill-opacity:1;stroke:none"
       id="path5065-1-82"
       sodipodi:cx="164.65486"
       sodipodi:cy="349.99234"
       sodipodi:rx="16.162441"
       sodipodi:ry="16.667517"
       d="m 180.8173,349.99234 a 16.162441,16.667517 0 1 1 -32.32488,0 16.162441,16.667517 0 1 1 32.32488,0 z"
       transform="matrix(0.56250001,0,0,0.63636363,346.79799,392.24373)" />
    <path
       sodipodi:type="arc"
       style="fill:#ffffff;fill-opacity:1;stroke:none"
       id="path5065-1-7"
       sodipodi:cx="164.65486"
       sodipodi:cy="349.99234"
       sodipodi:rx="16.162441"
       sodipodi:ry="16.667517"
       d="m 180.8173,349.99234 a 16.162441,16.667517 0 1 1 -32.32488,0 16.162441,16.667517 0 1 1 32.32488,0 z"
       transform="matrix(0.56250001,0,0,0.63636363,361.95028,786.20322)" />
    <path
       sodipodi:type="arc"
       style="fill:#ffffff;fill-opacity:1;stroke:none"
       id="path5065-1-0"
       sodipodi:cx="164.65486"
       sodipodi:cy="349.99234"
       sodipodi:rx="16.162441"
       sodipodi:ry="16.667517"
       d="m 180.8173,349.99234 a 16.162441,16.667517 0 1 1 -32.32488,0 16.162441,16.667517 0 1 1 32.32488,0 z"
       transform="matrix(0.56250001,0,0,0.63636363,-50.191954,791.25399)" />
    <path
       sodipodi:type="arc"
       style="fill:#ffffff;fill-opacity:1;stroke:none"
       id="path5065-1-77"
       sodipodi:cx="164.65486"
       sodipodi:cy="349.99234"
       sodipodi:rx="16.162441"
       sodipodi:ry="16.667517"
       d="m 180.8173,349.99234 a 16.162441,16.667517 0 1 1 -32.32488,0 16.162441,16.667517 0 1 1 32.32488,0 z"
       transform="matrix(0.56250001,0,0,0.63636363,-56.25287,366.98992)" />
  </g>
</svg>
